<svg xmlns="http://www.w3.org/2000/svg" viewBox="0 0 769.13 802.11"><defs><style>.cls-1{fill:#dd1444;}.cls-2{fill:#1d1d26;}</style></defs><g id="brandmark_black-on-red"><g id="brandmark"><path class="cls-1" d="M309.9,516.75,160.83,430.67,0,523.53V709.25l160.83,92.86,459-265V337.81Zm-23.5,13.57-125.57,72.5L35.25,530.31l125.58-72.5ZM23.5,550.67l125.58,72.5v145L23.5,695.68Zm572.8-27.14L172.58,768.19v-145L309.9,543.88h0L596.3,378.51Z"/><path class="cls-2" d="M608.05,0,148.83,265.16v186l161.07,93L769.12,279V93ZM733.13,99.93,309.9,344.3,184.82,272.08,608.05,27.71ZM172.83,292.87,297.9,365.09V509.53L172.83,437.31ZM321.9,509.53V365.09L745.12,120.72V265.16Z"/><path class="cls-1" d="M309.9,516.75,160.83,430.67,0,523.53V709.25l160.83,92.86,459-265V337.81Zm-23.5,13.57-125.57,72.5L35.25,530.31l125.58-72.5ZM23.5,550.67l125.58,72.5v145L23.5,695.68Zm572.8-27.14L172.58,768.19v-145L309.9,543.88h0L596.3,378.51Z"/><path class="cls-2" d="M608.05,0,148.83,265.16v186l161.07,93L769.12,279V93ZM733.13,99.93,309.9,344.3,184.82,272.08,608.05,27.71ZM172.83,292.87,297.9,365.09V509.53L172.83,437.31ZM321.9,509.53V365.09L745.12,120.72V265.16Z"/></g></g></svg>